<mxfile host="www.draw.io" modified="2019-11-22T04:36:18.518Z" agent="Mozilla/5.0 (Windows NT 10.0; Win64; x64) AppleWebKit/537.36 (KHTML, like Gecko) Chrome/75.0.3770.80 Safari/537.36" etag="bkRnIQp_Qo7nKFqh-nS2" version="12.2.9" type="github" pages="1">
  <diagram id="cXorSHXpXes0jmDtnGfV" name="Page-1">
    <mxGraphModel dx="1038" dy="531" grid="1" gridSize="10" guides="1" tooltips="1" connect="1" arrows="1" fold="1" page="1" pageScale="1" pageWidth="1169" pageHeight="827" math="0" shadow="0">
      <root>
        <mxCell id="0"/>
        <mxCell id="1" parent="0"/>
        <mxCell id="sIcvni8QaS2tUwrDgOOw-10" style="edgeStyle=orthogonalEdgeStyle;rounded=0;orthogonalLoop=1;jettySize=auto;html=1;exitX=0.5;exitY=1;exitDx=0;exitDy=0;exitPerimeter=0;" edge="1" parent="1" source="sIcvni8QaS2tUwrDgOOw-1" target="sIcvni8QaS2tUwrDgOOw-2">
          <mxGeometry relative="1" as="geometry"/>
        </mxCell>
        <mxCell id="sIcvni8QaS2tUwrDgOOw-1" value="开始" style="strokeWidth=2;html=1;shape=mxgraph.flowchart.terminator;whiteSpace=wrap;" vertex="1" parent="1">
          <mxGeometry x="90" y="150" width="100" height="50" as="geometry"/>
        </mxCell>
        <mxCell id="sIcvni8QaS2tUwrDgOOw-11" style="edgeStyle=orthogonalEdgeStyle;rounded=0;orthogonalLoop=1;jettySize=auto;html=1;exitX=0.5;exitY=1;exitDx=0;exitDy=0;entryX=0.5;entryY=0;entryDx=0;entryDy=0;entryPerimeter=0;" edge="1" parent="1" source="sIcvni8QaS2tUwrDgOOw-2" target="sIcvni8QaS2tUwrDgOOw-3">
          <mxGeometry relative="1" as="geometry"/>
        </mxCell>
        <mxCell id="sIcvni8QaS2tUwrDgOOw-2" value="需求变更整理、记录" style="rounded=1;whiteSpace=wrap;html=1;absoluteArcSize=1;arcSize=14;strokeWidth=2;" vertex="1" parent="1">
          <mxGeometry x="70" y="240" width="140" height="60" as="geometry"/>
        </mxCell>
        <mxCell id="sIcvni8QaS2tUwrDgOOw-12" value="是" style="edgeStyle=orthogonalEdgeStyle;rounded=0;orthogonalLoop=1;jettySize=auto;html=1;exitX=0.5;exitY=1;exitDx=0;exitDy=0;exitPerimeter=0;entryX=0.5;entryY=0;entryDx=0;entryDy=0;entryPerimeter=0;" edge="1" parent="1" source="sIcvni8QaS2tUwrDgOOw-3" target="sIcvni8QaS2tUwrDgOOw-4">
          <mxGeometry relative="1" as="geometry"/>
        </mxCell>
        <mxCell id="sIcvni8QaS2tUwrDgOOw-19" value="否" style="edgeStyle=orthogonalEdgeStyle;rounded=0;orthogonalLoop=1;jettySize=auto;html=1;exitX=0;exitY=0.5;exitDx=0;exitDy=0;exitPerimeter=0;entryX=0;entryY=0.5;entryDx=0;entryDy=0;entryPerimeter=0;" edge="1" parent="1" source="sIcvni8QaS2tUwrDgOOw-3" target="sIcvni8QaS2tUwrDgOOw-9">
          <mxGeometry relative="1" as="geometry">
            <Array as="points">
              <mxPoint x="40" y="375"/>
              <mxPoint x="40" y="900"/>
            </Array>
          </mxGeometry>
        </mxCell>
        <mxCell id="sIcvni8QaS2tUwrDgOOw-3" value="初审通过？" style="strokeWidth=2;html=1;shape=mxgraph.flowchart.decision;whiteSpace=wrap;" vertex="1" parent="1">
          <mxGeometry x="90" y="340" width="100" height="70" as="geometry"/>
        </mxCell>
        <mxCell id="sIcvni8QaS2tUwrDgOOw-13" value="是" style="edgeStyle=orthogonalEdgeStyle;rounded=0;orthogonalLoop=1;jettySize=auto;html=1;exitX=0.5;exitY=1;exitDx=0;exitDy=0;exitPerimeter=0;entryX=0.5;entryY=0;entryDx=0;entryDy=0;" edge="1" parent="1" source="sIcvni8QaS2tUwrDgOOw-4" target="sIcvni8QaS2tUwrDgOOw-5">
          <mxGeometry relative="1" as="geometry"/>
        </mxCell>
        <mxCell id="sIcvni8QaS2tUwrDgOOw-21" value="否" style="edgeStyle=orthogonalEdgeStyle;rounded=0;orthogonalLoop=1;jettySize=auto;html=1;exitX=1;exitY=0.5;exitDx=0;exitDy=0;exitPerimeter=0;entryX=1;entryY=0.5;entryDx=0;entryDy=0;entryPerimeter=0;" edge="1" parent="1" source="sIcvni8QaS2tUwrDgOOw-4" target="sIcvni8QaS2tUwrDgOOw-9">
          <mxGeometry relative="1" as="geometry">
            <Array as="points">
              <mxPoint x="300" y="470"/>
              <mxPoint x="300" y="900"/>
            </Array>
          </mxGeometry>
        </mxCell>
        <mxCell id="sIcvni8QaS2tUwrDgOOw-4" value="复审通过？" style="strokeWidth=2;html=1;shape=mxgraph.flowchart.decision;whiteSpace=wrap;" vertex="1" parent="1">
          <mxGeometry x="90" y="440" width="100" height="60" as="geometry"/>
        </mxCell>
        <mxCell id="sIcvni8QaS2tUwrDgOOw-14" style="edgeStyle=orthogonalEdgeStyle;rounded=0;orthogonalLoop=1;jettySize=auto;html=1;exitX=0.5;exitY=1;exitDx=0;exitDy=0;" edge="1" parent="1" source="sIcvni8QaS2tUwrDgOOw-5" target="sIcvni8QaS2tUwrDgOOw-6">
          <mxGeometry relative="1" as="geometry"/>
        </mxCell>
        <mxCell id="sIcvni8QaS2tUwrDgOOw-5" value="变更任务分配表" style="rounded=1;whiteSpace=wrap;html=1;absoluteArcSize=1;arcSize=14;strokeWidth=2;" vertex="1" parent="1">
          <mxGeometry x="90" y="540" width="100" height="50" as="geometry"/>
        </mxCell>
        <mxCell id="sIcvni8QaS2tUwrDgOOw-16" style="edgeStyle=orthogonalEdgeStyle;rounded=0;orthogonalLoop=1;jettySize=auto;html=1;exitX=0.5;exitY=1;exitDx=0;exitDy=0;entryX=0.5;entryY=0;entryDx=0;entryDy=0;entryPerimeter=0;" edge="1" parent="1" source="sIcvni8QaS2tUwrDgOOw-6" target="sIcvni8QaS2tUwrDgOOw-8">
          <mxGeometry relative="1" as="geometry"/>
        </mxCell>
        <mxCell id="sIcvni8QaS2tUwrDgOOw-6" value="任务分配、实施" style="rounded=1;whiteSpace=wrap;html=1;absoluteArcSize=1;arcSize=14;strokeWidth=2;" vertex="1" parent="1">
          <mxGeometry x="90" y="630" width="100" height="40" as="geometry"/>
        </mxCell>
        <mxCell id="sIcvni8QaS2tUwrDgOOw-18" style="edgeStyle=orthogonalEdgeStyle;rounded=0;orthogonalLoop=1;jettySize=auto;html=1;exitX=0.5;exitY=1;exitDx=0;exitDy=0;entryX=0.5;entryY=0;entryDx=0;entryDy=0;entryPerimeter=0;" edge="1" parent="1" source="sIcvni8QaS2tUwrDgOOw-7" target="sIcvni8QaS2tUwrDgOOw-9">
          <mxGeometry relative="1" as="geometry"/>
        </mxCell>
        <mxCell id="sIcvni8QaS2tUwrDgOOw-7" value="通知用户" style="rounded=1;whiteSpace=wrap;html=1;absoluteArcSize=1;arcSize=14;strokeWidth=2;" vertex="1" parent="1">
          <mxGeometry x="90" y="810" width="100" height="40" as="geometry"/>
        </mxCell>
        <mxCell id="sIcvni8QaS2tUwrDgOOw-17" value="是" style="edgeStyle=orthogonalEdgeStyle;rounded=0;orthogonalLoop=1;jettySize=auto;html=1;exitX=0.5;exitY=1;exitDx=0;exitDy=0;exitPerimeter=0;entryX=0.5;entryY=0;entryDx=0;entryDy=0;" edge="1" parent="1" source="sIcvni8QaS2tUwrDgOOw-8" target="sIcvni8QaS2tUwrDgOOw-7">
          <mxGeometry relative="1" as="geometry"/>
        </mxCell>
        <mxCell id="sIcvni8QaS2tUwrDgOOw-20" value="是" style="edgeStyle=orthogonalEdgeStyle;rounded=0;orthogonalLoop=1;jettySize=auto;html=1;exitX=1;exitY=0.5;exitDx=0;exitDy=0;exitPerimeter=0;entryX=1;entryY=0.5;entryDx=0;entryDy=0;" edge="1" parent="1" source="sIcvni8QaS2tUwrDgOOw-8" target="sIcvni8QaS2tUwrDgOOw-5">
          <mxGeometry relative="1" as="geometry">
            <Array as="points">
              <mxPoint x="230" y="750"/>
              <mxPoint x="230" y="565"/>
            </Array>
          </mxGeometry>
        </mxCell>
        <mxCell id="sIcvni8QaS2tUwrDgOOw-8" value="测试通过？" style="strokeWidth=2;html=1;shape=mxgraph.flowchart.decision;whiteSpace=wrap;" vertex="1" parent="1">
          <mxGeometry x="90" y="720" width="100" height="60" as="geometry"/>
        </mxCell>
        <mxCell id="sIcvni8QaS2tUwrDgOOw-9" value="结束" style="strokeWidth=2;html=1;shape=mxgraph.flowchart.terminator;whiteSpace=wrap;" vertex="1" parent="1">
          <mxGeometry x="90" y="880" width="100" height="40" as="geometry"/>
        </mxCell>
      </root>
    </mxGraphModel>
  </diagram>
</mxfile>
